# xmcd
#
# Track frame offsets:
#	150
#	11412
#	25860
#	37385
#	49315
#	61247
#	73695
#	90192
#	104250
#	119200
#	133102
#	148540
#	159250
#	171170
#
# Disc length: 2405 seconds
#
# Revision: 0
# Processed by: cddbd v1.5.1PL0 Copyright (c) Steve Scherf et al.
# Submitted via: dBpowerAMP V4.0
#
DISCID=c209630e
DTITLE=Jeff Beck - Jeff Beck Guitar Legend
DYEAR=1900
DGENRE=
TTITLE0=Heart Full of Soul
TTITLE1=What Do You Want
TTITLE2=I'm Not Talking
TTITLE3=Steeled Blues
TTITLE4=I'm A Man
TTITLE5=Stroll On
TTITLE6=I Ain't Done Wrong
TTITLE7=Like Jimmy Reed Again
TTITLE8=You're A Better Man Than I
TTITLE9=Jeff's Blues
TTITLE10=Down in the Boots
TTITLE11=Chuckles
TTITLE12=Steelin'
TTITLE13=L.A. Breakdown
EXTD=
EXTT0=
EXTT1=
EXTT2=
EXTT3=
EXTT4=
EXTT5=
EXTT6=
EXTT7=
EXTT8=
EXTT9=
EXTT10=
EXTT11=
EXTT12=
EXTT13=
PLAYORDER=
